<svg width="28" height="28" viewBox="0 0 28 28" fill="none" xmlns="http://www.w3.org/2000/svg">
<path d="M21.1593 14.98C21.1993 14.66 21.2293 14.34 21.2293 14C21.2293 13.66 21.1993 13.34 21.1593 13.02L23.2693 11.37C23.4593 11.22 23.5093 10.95 23.3893 10.73L21.3893 7.27C21.2693 7.05 20.9993 6.97 20.7793 7.05L18.2893 8.05C17.7693 7.65 17.2093 7.32 16.5993 7.07L16.2193 4.42C16.1893 4.18 15.9793 4 15.7293 4H11.7293C11.4793 4 11.2693 4.18 11.2393 4.42L10.8593 7.07C10.2493 7.32 9.68933 7.66 9.16933 8.05L6.67933 7.05C6.44933 6.96 6.18933 7.05 6.06933 7.27L4.06933 10.73C3.93933 10.95 3.99933 11.22 4.18933 11.37L6.29933 13.02C6.25933 13.34 6.22933 13.67 6.22933 14C6.22933 14.33 6.25933 14.66 6.29933 14.98L4.18933 16.63C3.99933 16.78 3.94933 17.05 4.06933 17.27L6.06933 20.73C6.18933 20.95 6.45933 21.03 6.67933 20.95L9.16933 19.95C9.68933 20.35 10.2493 20.68 10.8593 20.93L11.2393 23.58C11.2693 23.82 11.4793 24 11.7293 24H15.7293C15.9793 24 16.1893 23.82 16.2193 23.58L16.5993 20.93C17.2093 20.68 17.7693 20.34 18.2893 19.95L20.7793 20.95C21.0093 21.04 21.2693 20.95 21.3893 20.73L23.3893 17.27C23.5093 17.05 23.4593 16.78 23.2693 16.63L21.1593 14.98ZM13.7293 17.5C11.7993 17.5 10.2293 15.93 10.2293 14C10.2293 12.07 11.7993 10.5 13.7293 10.5C15.6593 10.5 17.2293 12.07 17.2293 14C17.2293 15.93 15.6593 17.5 13.7293 17.5Z" fill="#424956"/>
</svg>
