<svg width="443" height="82" viewBox="0 0 443 82" fill="none" xmlns="http://www.w3.org/2000/svg">
<path d="M58.456 30.816C70.072 30.816 79.096 24.96 79.096 15.168C79.096 6.23999 72.568 0.575998 61.816 0.575998C55.864 0.575998 45.4 2.68799 38.968 10.848C35.512 8.832 30.712 6.336 23.128 6.336C9.4 6.336 0.279999 14.784 0.279999 26.208C0.279999 34.56 4.888 41.088 13.816 41.088C23.032 41.088 27.736 34.08 26.104 30.432C23.416 30.432 21.592 28.416 21.592 25.632C21.592 22.176 24.472 19.968 28.696 19.968C30.328 19.968 31.864 20.352 33.304 20.832C30.712 26.4 29.272 32.448 29.272 38.688C29.272 51.264 35.032 58.08 42.904 58.08C46.168 58.08 50.584 56.928 52.984 52.416C53.656 51.168 55 52.704 54.328 53.856C50.488 60.384 45.4 62.976 39.544 62.976C31.672 62.976 24.952 57.984 24.952 50.592C24.952 49.92 24.28 49.44 23.512 49.44C17.08 49.44 12.856 55.68 12.856 63.168C12.856 73.152 20.344 81.216 34.168 81.216C48.856 81.216 60.088 72.96 64.6 59.52C67.096 52.032 69.208 46.272 71.032 38.304C71.512 36.288 67.96 33.696 65.368 35.904C62.392 39.648 58.552 40.896 54.616 40.896C48.76 40.896 45.592 37.44 45.592 32.352C45.592 31.008 45.784 29.664 46.264 28.224C49.528 29.76 53.464 30.816 58.456 30.816ZM59.8 14.976C64.12 14.976 65.464 16.608 65.464 18.432C65.464 21.12 62.584 23.904 56.344 23.904C54.136 23.904 50.2 23.616 50.2 20.544C50.2 17.088 55 14.976 59.8 14.976ZM119.029 45.696C116.725 49.056 114.133 50.4 111.349 50.4H110.677C111.637 47.232 112.117 43.872 112.117 40.512C112.117 28.416 105.973 24 98.101 24C82.837 24 71.701 41.472 71.701 55.872C71.701 65.856 77.941 72 86.581 72C93.781 72 100.597 67.776 105.397 61.248H106.549C115.861 61.248 120.565 53.952 123.349 48.096C124.405 45.888 120.181 44.064 119.029 45.696ZM92.053 52.128C88.405 52.128 87.061 49.728 87.061 46.944C87.061 42.72 90.229 38.016 94.933 38.016C98.677 38.016 100.213 40.32 100.213 43.104C100.213 47.136 96.853 52.128 92.053 52.128ZM164.685 45.696C162.381 49.056 159.789 50.4 157.005 50.4H156.333C157.293 47.232 157.773 43.872 157.773 40.512C157.773 28.416 151.629 24 143.757 24C128.493 24 117.357 41.472 117.357 55.872C117.357 65.856 123.597 72 132.237 72C139.437 72 146.253 67.776 151.053 61.248H152.205C161.517 61.248 166.221 53.952 169.005 48.096C170.061 45.888 165.837 44.064 164.685 45.696ZM137.709 52.128C134.061 52.128 132.717 49.728 132.717 46.944C132.717 42.72 135.885 38.016 140.589 38.016C144.333 38.016 145.869 40.32 145.869 43.104C145.869 47.136 142.509 52.128 137.709 52.128ZM173.67 72C179.526 72 185.094 65.76 189.03 57.984H189.414C188.358 65.952 191.526 72 197.67 72C208.326 72 213.606 57.024 218.31 48.096C219.27 46.272 215.43 43.392 213.99 45.696C212.07 48.768 209.67 50.592 206.406 50.592C202.182 50.592 201.126 46.752 204.39 39.744L215.238 12C217.734 6.528 216.39 2.976 213.03 2.976C210.15 2.976 206.598 4.608 202.95 13.44C198.822 23.328 198.822 28.608 197.286 28.608C194.79 28.608 195.174 24 187.494 24C170.982 24 162.726 44.16 162.726 58.368C162.726 66.048 166.086 72 173.67 72ZM182.406 52.128C178.758 52.128 177.414 49.728 177.414 46.944C177.414 42.72 180.582 38.016 185.286 38.016C189.03 38.016 190.566 40.32 190.566 43.104C190.566 47.136 187.206 52.128 182.406 52.128ZM291.368 45.696C289.064 49.056 286.472 50.4 283.688 50.4C282.344 50.4 281.192 50.208 280.232 49.824C288.008 34.752 289.16 23.808 281.096 23.808C274.472 23.808 271.496 31.008 271.496 39.456C271.496 42.528 271.88 45.408 272.552 48.384C271.592 49.824 269.576 52.128 265.544 52.128C261.608 52.128 259.88 49.824 259.88 46.176C259.88 40.512 264.2 33.216 264.2 27.84C264.2 25.056 263.144 24 261.224 24C255.944 24 250.76 35.616 248.36 45.696C245.384 57.6 247.784 71.904 258.056 71.904C263.912 71.904 269.576 66.72 274.376 59.808C275.72 60.768 277.256 61.248 278.888 61.248C288.2 61.248 292.904 53.952 295.688 48.096C296.744 45.888 292.52 44.064 291.368 45.696ZM308.484 20.064C313.476 20.064 317.411 18.144 317.988 12.192C318.468 6.23999 314.531 4.41599 309.636 4.41599C304.356 4.41599 300.036 6.432 300.036 13.248C300.036 18.336 303.876 20.064 308.484 20.064ZM297.828 72C310.212 72 316.356 53.184 319.428 48C320.388 46.272 316.644 43.392 315.108 45.696C313.188 48.576 311.364 50.496 308.484 50.496C305.892 50.496 304.164 48.864 304.164 45.696C304.164 40.512 308.484 34.176 308.484 28.32C308.484 25.248 307.236 24 305.22 24C299.748 24 295.812 31.776 291.396 45.696C289.956 50.304 288.995 55.488 288.995 60C288.995 66.72 291.396 72 297.828 72ZM358.797 45.696C356.877 48.48 354.573 49.824 352.077 50.208C353.325 46.272 354.093 42.048 354.093 37.632C354.093 27.84 350.157 24 343.629 24C341.421 24 338.445 25.056 335.757 27.84C334.509 29.088 332.781 28.608 333.165 27.264C334.317 22.752 336.812 17.472 339.213 12C342.093 5.75999 340.845 2.976 336.909 2.976C331.341 2.976 327.597 10.464 322.317 24.864C320.205 30.624 317.805 37.632 315.021 45.696C309.836 60.768 317.133 72 329.037 72C335.277 72 341.709 67.776 346.509 61.248C355.629 60.672 360.333 53.856 363.117 48.096C364.173 45.888 359.949 44.064 358.797 45.696ZM327.789 46.944C327.789 42.72 330.957 38.016 335.661 38.016C339.405 38.016 340.941 40.32 340.941 43.104C340.941 47.136 337.581 52.128 332.781 52.128C329.133 52.128 327.789 49.728 327.789 46.944ZM374.642 72C385.778 72 395.954 63.744 404.402 48.096C405.458 46.272 401.618 43.392 400.082 45.696C395.762 52.32 387.986 55.68 381.458 55.68C375.986 55.68 371.474 53.952 371.474 50.592C371.474 49.344 372.434 49.056 373.106 49.44C375.314 50.688 377.906 50.976 380.594 50.976C390.002 50.976 396.05 43.104 396.05 36.096C396.05 29.76 392.114 24 383.186 24C355.634 24 347.666 72 374.642 72ZM378.098 43.776C375.026 43.776 373.586 41.952 373.586 39.84C373.586 37.248 375.89 34.464 379.634 34.464C382.61 34.464 384.05 36.288 384.05 38.4C384.05 40.8 381.842 43.776 378.098 43.776ZM437.3 45.696C435.38 48.576 433.364 50.688 430.484 50.784C429.236 44.832 424.148 37.152 424.148 35.328C424.148 31.488 431.156 31.2 431.06 28.128C431.156 25.056 428.276 21.6 422.324 21.6C414.068 21.6 407.252 35.904 400.436 45.12L400.052 45.696C394.292 55.296 396.308 71.904 413.204 71.904C431.06 71.904 438.932 53.664 441.62 48.096C442.484 46.272 438.836 43.392 437.3 45.696ZM409.748 52.128C406.58 52.128 404.372 50.4 404.372 48.096C406.58 45.312 409.556 41.376 411.956 37.824C412.82 36.576 413.588 36.576 414.26 37.824C415.604 40.416 416.372 42.816 416.372 45.12C416.372 49.056 413.972 52.128 409.748 52.128Z" fill="white"/>
</svg>
